<?xml version="1.0" encoding="utf-8"?>
<!-- Generator: Adobe Illustrator 24.0.1, SVG Export Plug-In . SVG Version: 6.00 Build 0)  -->
<svg version="1.1" id="Layer_1" xmlns="http://www.w3.org/2000/svg" xmlns:xlink="http://www.w3.org/1999/xlink" x="0px" y="0px"
	 viewBox="0 0 350.2 370.8" style="enable-background:new 0 0 350.2 370.8;" xml:space="preserve">
<style type="text/css">
	.st0{fill:url(#SVGID_1_);}
	.st1{fill:url(#SVGID_2_);}
	.st2{fill:url(#SVGID_3_);}
	.st3{fill:url(#SVGID_4_);}
	.st4{fill:url(#SVGID_5_);}
	.st5{fill:url(#SVGID_6_);}
	.st6{fill:#14213D;}
	.st7{opacity:2.000000e-02;}
	.st8{fill:#E6E6E6;}
	.st9{fill:#696B6D;}
	.st10{fill:#484B4C;}
	.st11{fill:#7B7D80;}
	.st12{fill:#2C2E30;}
	.st13{fill:#B6B8BA;}
	.st14{fill:#282A2C;}
	.st15{fill:#F5C364;}
	.st16{opacity:0.3;}
	.st17{fill:#FCA311;}
	.st18{fill:#545658;}
	.st19{fill:#96A5A8;}
	.st20{fill:#292D2F;}
	.st21{fill:#FFFFFF;}
	.st22{fill:#3F4244;}
	.st23{fill:#17181A;}
	.st24{opacity:0.75;}
	.st25{fill:url(#SVGID_7_);}
</style>
<g>
	<g>
		
			<linearGradient id="SVGID_1_" gradientUnits="userSpaceOnUse" x1="228.8557" y1="146.9479" x2="203.4031" y2="128.7103" gradientTransform="matrix(1 0 0 -1 0 372)">
			<stop  offset="0" style="stop-color:#010415"/>
			<stop  offset="0.1907" style="stop-color:#0B2030"/>
			<stop  offset="0.3646" style="stop-color:#113242"/>
			<stop  offset="0.4897" style="stop-color:#133848"/>
			<stop  offset="0.8948" style="stop-color:#2B0E48"/>
			<stop  offset="1" style="stop-color:#2B0E48"/>
		</linearGradient>
		<path class="st0" d="M227.5,228.4l-26.1,14.1c0,0-0.9,0.6-0.2,1.7c0,0,0.5,0.6,1.6-0.1C203.9,243.3,227.5,228.4,227.5,228.4z"/>
		
			<linearGradient id="SVGID_2_" gradientUnits="userSpaceOnUse" x1="201.5885" y1="128.4456" x2="204.5724" y2="130.3162" gradientTransform="matrix(1 0 0 -1 0 372)">
			<stop  offset="0" style="stop-color:#FFFFFF"/>
			<stop  offset="6.750000e-02" style="stop-color:#E7EBEC"/>
			<stop  offset="0.261" style="stop-color:#A7B5BB"/>
			<stop  offset="0.4459" style="stop-color:#728892"/>
			<stop  offset="0.6172" style="stop-color:#496672"/>
			<stop  offset="0.7719" style="stop-color:#2B4D5B"/>
			<stop  offset="0.9046" style="stop-color:#193D4D"/>
			<stop  offset="1" style="stop-color:#133848"/>
		</linearGradient>
		<path class="st1" d="M204.7,241.3c-0.3,0.1-0.7,0.2-1,0.4c-0.2,0.1-0.3,0.1-0.5,0.2c-0.1,0-0.2,0.1-0.3,0.1
			c0.2-0.1,0.4-0.2,0.6-0.3l0,0l0,0c0,0,0,0,0,0c0,0,0-0.1,0-0.1c-0.4,0.1-0.8,0.3-1.2,0.4c-0.2,0.1-0.4,0.2-0.6,0.3
			c-0.1,0.1-0.2,0.2-0.3,0.3c-0.2,0.2-0.3,0.5-0.3,0.8c0,0.3,0.2,0.6,0.5,0.7c0.2,0.1,0.4,0,0.5,0c0.1-0.1,0.3-0.1,0.4-0.2
			c0.1,0,0.1-0.1,0.2-0.1c0.2-0.1,0.3-0.3,0.5-0.4c0.2-0.2,0.3-0.4,0.4-0.5c0.1-0.1,0.3-0.3,0.3-0.5c0,0,0-0.1,0-0.1
			c-0.1,0-0.2,0-0.3,0.1c0.1-0.1,0.2-0.1,0.3-0.2c0.1-0.1,0.2-0.2,0.3-0.3c0,0,0-0.1,0-0.1c-0.1,0-0.2,0.1-0.3,0.1
			c-0.1,0.1-0.2,0.1-0.4,0.2c-0.1,0-0.1,0.1-0.2,0.1c0.1-0.1,0.3-0.2,0.4-0.3c0.1-0.1,0.3-0.2,0.4-0.3c0.1-0.1,0.2-0.1,0.2-0.1
			C204.6,241.5,204.7,241.4,204.7,241.3C204.8,241.4,204.7,241.3,204.7,241.3z"/>
	</g>
	
		<linearGradient id="SVGID_3_" gradientUnits="userSpaceOnUse" x1="205.4078" y1="132.5089" x2="206.51" y2="130.939" gradientTransform="matrix(1 0 0 -1 0 372)">
		<stop  offset="0" style="stop-color:#010415"/>
		<stop  offset="0.1907" style="stop-color:#0B2030"/>
		<stop  offset="0.3646" style="stop-color:#113242"/>
		<stop  offset="0.4897" style="stop-color:#133848"/>
		<stop  offset="0.8948" style="stop-color:#2B0E48"/>
		<stop  offset="1" style="stop-color:#2B0E48"/>
	</linearGradient>
	<path class="st2" d="M208.1,239.1c0,0-6.1,2.9-6.8,3.6c-0.6,0.7-0.3,1.9,1.2,1.3c1.5-0.6,8.1-5.5,8.1-5.5l-2.9,1.7l3.7-2.6l-3.4,2
		c0,0,1.7-1.3,1.6-1.3C209.6,238.3,208.1,239.1,208.1,239.1z"/>
</g>
<g>
	<g>
		
			<linearGradient id="SVGID_4_" gradientUnits="userSpaceOnUse" x1="42.2276" y1="6.6801" x2="16.775" y2="-11.5576" gradientTransform="matrix(0.9279 -0.3729 -0.3729 -0.9279 114.0945 152.0032)">
			<stop  offset="0" style="stop-color:#010415"/>
			<stop  offset="0.1907" style="stop-color:#0B2030"/>
			<stop  offset="0.3646" style="stop-color:#113242"/>
			<stop  offset="0.4897" style="stop-color:#133848"/>
			<stop  offset="0.8948" style="stop-color:#2B0E48"/>
			<stop  offset="1" style="stop-color:#2B0E48"/>
		</linearGradient>
		<path class="st3" d="M150.7,133.6l-19,22.9c0,0-0.6,0.9,0.4,1.6c0,0,0.7,0.4,1.5-0.7C134.4,156.3,150.7,133.6,150.7,133.6z"/>
		
			<linearGradient id="SVGID_5_" gradientUnits="userSpaceOnUse" x1="14.9541" y1="-11.8128" x2="17.9381" y2="-9.9423" gradientTransform="matrix(0.9279 -0.3729 -0.3729 -0.9279 114.0945 152.0032)">
			<stop  offset="0" style="stop-color:#FFFFFF"/>
			<stop  offset="6.750000e-02" style="stop-color:#E7EBEC"/>
			<stop  offset="0.261" style="stop-color:#A7B5BB"/>
			<stop  offset="0.4459" style="stop-color:#728892"/>
			<stop  offset="0.6172" style="stop-color:#496672"/>
			<stop  offset="0.7719" style="stop-color:#2B4D5B"/>
			<stop  offset="0.9046" style="stop-color:#193D4D"/>
			<stop  offset="1" style="stop-color:#133848"/>
		</linearGradient>
		<path class="st4" d="M134.5,154.2c-0.3,0.2-0.6,0.5-0.8,0.7c-0.1,0.1-0.3,0.3-0.4,0.4c-0.1,0.1-0.1,0.2-0.2,0.3
			c0.1-0.2,0.3-0.3,0.4-0.5l0,0l0,0l0,0c0,0,0-0.1-0.1-0.1c-0.3,0.3-0.6,0.6-0.9,0.9c-0.1,0.2-0.3,0.3-0.4,0.5
			c-0.1,0.1-0.2,0.3-0.2,0.4c-0.1,0.3-0.1,0.6,0.1,0.8c0.1,0.3,0.4,0.5,0.8,0.4c0.2,0,0.4-0.1,0.5-0.2c0.1-0.1,0.2-0.2,0.3-0.4
			c0.1-0.1,0.1-0.1,0.1-0.2c0.1-0.2,0.2-0.4,0.3-0.6c0.1-0.2,0.1-0.4,0.2-0.6c0.1-0.2,0.1-0.4,0.1-0.6c0,0,0,0-0.1,0
			c-0.1,0-0.2,0.1-0.2,0.2c0.1-0.1,0.1-0.2,0.1-0.3c0.1-0.1,0.1-0.3,0.2-0.4c0,0,0-0.1,0,0c-0.1,0.1-0.2,0.1-0.2,0.2
			c-0.1,0.1-0.2,0.2-0.3,0.3c0,0.1-0.1,0.1-0.1,0.2c0.1-0.1,0.2-0.3,0.3-0.5c0.1-0.2,0.2-0.3,0.3-0.5c0.1-0.1,0.1-0.1,0.2-0.2
			C134.4,154.3,134.5,154.2,134.5,154.2C134.5,154.1,134.5,154.1,134.5,154.2z"/>
	</g>
	
		<linearGradient id="SVGID_6_" gradientUnits="userSpaceOnUse" x1="18.7862" y1="-7.7493" x2="19.8885" y2="-9.3192" gradientTransform="matrix(0.9279 -0.3729 -0.3729 -0.9279 114.0945 152.0032)">
		<stop  offset="0" style="stop-color:#010415"/>
		<stop  offset="0.1907" style="stop-color:#0B2030"/>
		<stop  offset="0.3646" style="stop-color:#113242"/>
		<stop  offset="0.4897" style="stop-color:#133848"/>
		<stop  offset="0.8948" style="stop-color:#2B0E48"/>
		<stop  offset="1" style="stop-color:#2B0E48"/>
	</linearGradient>
	<path class="st5" d="M136.8,150.9c0,0-4.6,5-4.9,5.9c-0.4,0.9,0.4,1.9,1.6,0.7s5.4-8.1,5.4-8.1l-2,2.6l2.5-3.8l-2.4,3.1
		c0,0,1.1-1.8,1.1-1.8C137.9,149.5,136.8,150.9,136.8,150.9z"/>
</g>
<g>
	<g>
		
			<image style="overflow:visible;opacity:0.59;enable-background:new    ;" width="808" height="804" xlink:href="E99ECD07.png"  transform="matrix(0.2123 0 0 0.2123 114.6552 100.045)">
		</image>
		<g>
			<circle class="st6" cx="196" cy="180.9" r="74.9"/>
		</g>
	</g>
	<g class="st7">
		<g>
			<path class="st8" d="M267.9,177.9c0.6-1.1,0.4-9.7-1.8-13.2c-4.9,3.6-2.5,17.8-0.8,24.1c1.2-0.4,2-7.1,3-5.8
				c-1,0-1.3-0.4-0.9-1.2c0.5,0.1,1,0.3,1.5,0.6C268.7,181.3,268.6,178.9,267.9,177.9C268,177.8,268.4,178.7,267.9,177.9z"/>
		</g>
		<g>
			<path class="st8" d="M263.8,165.3c-0.6,0.3-0.7,2.3,0.2,2.5c0.8-5,0.1-4.3-0.8-8.6c1.3,0,1.9,1,2.7,0.5c-0.5-0.5-1.1-1-1.7-1.4
				c0.6,0,1.1-0.1,1.7-0.1c-0.6-3.5-3.9-3.9-3.1-7.2c-1.4-2.1-2.5,2.5-2,2c-1.7-1.1-2.9-7.7-7.2-7.9
				C255,151.7,262.2,160.6,263.8,165.3C263.8,165.3,263.8,165.2,263.8,165.3z"/>
		</g>
		<g>
			<path class="st8" d="M240,161.7c-2.1,4.1,5.4,11.3,7.1,5.8c0.4,0.8,1,1.3,1.9,1.6c0.1-0.4,1.3-3.3,1.6-3.6
				c3.8,5.3,3.1-11.9-1.1-6.7c0.4-3.4-4.4-11.5-8.9-9.5c0.5,1.1,1.4,1.8,2.5,2.1c-0.4,0.3-0.8,0.5-1.1,0.8c2.6,0,4.1,3.9,3.6,6.4
				c1.1,0.1-4.1-3-2.9-1.5c-0.1-1.4,0.2-2.8,0.1-4.3c-0.1,0-2.6,1.5-2.4,0.9c0.7,1.3,1.2,2.7,1.6,4.1c-0.5,0.3-2.6-3-2.9-1
				C239.1,157.5,235,162.5,240,161.7C239.1,163.4,238.7,161.9,240,161.7z"/>
		</g>
		<g>
			<path class="st8" d="M256.3,173.6c0.1,0,0.3,4.8,0.3,4.8c-1.2,0.8-2.1,0.5-2.7-1.1c-1,1.5,2.8,6.1-1,5.7
				c-1.7-6.4-8.4-2.2-10.9-4.9c0.3-0.2,1.4-0.8,1.1-1.4c-1,2.4-2.8-0.8-3.2,1.2c-0.2-0.3,2.4,5.7,1.4,6.4c-0.3-0.4-0.7-0.6-1.1-0.6
				c0.4-0.6,0.7-1.4,0.7-2.1c0,0.1-2.9,5.1-2.8,5.8c0.4-0.2,0.8-0.3,1.2-0.5c-2.9-3.5-0.5-2.5,0.2-8.2c-0.9,0.7-1.3,0.7-1.1-0.1
				c-1.5,0.7-3,1.4-4.4,2.2c0.8-0.4,1.3-1,1.6-1.8c-1.9-0.1-1.4-0.4-1.1-2.5c0.9,0.5,1.8,0.6,2.8,0.1c0.2-0.9-0.1-1.6-0.9-2
				c0.6-0.1,2,0.3,2.6-1c-1.5-0.5-4.6-1.2-4.8-4.4c-1.1-0.1-1.8,0.5-2.2,1.6c0.9-0.2-1.1-5.3-1.1-5.8c-1.3,0-5.2,0.7-4,3.4
				c-1.3-2.1-2.3,1.1-2.2,2c-1.3-1-3.6-2.7-4.4-3.4c-0.7-0.6-1.5-5.6-2.8-3.9c-0.1-4.4,1.6-4.7-1.8-7.8c1.6-1.2,1.2-4-1.8-4.3
				c-0.3,3.2,1.1,1.4-1.3,2.3c0.1-1,0.7-1.7,1.6-2.2c-2,1.3-2.7,0.5-2.1-2.2c-5.4-0.2,4.3,0.8-0.5-1.6c-1.4,1-2.7,2.2-3.7,3.7
				c-0.9-3.2-2.8-0.9-2.8-3.5c-0.1,1.5-0.9,2.6-2.2,3c-0.4-1.3-0.1-2.5,1-3.4c-8.5,2.2,0.1-2.6-3-3.1c0,0.8-2.2,4-2,3.5
				c-2.3-0.3-6.2,2-7.8,2.2c3.1-0.4,0.1,7.9,0.1,7.8c0.2-0.1,0.4-0.2,0.6-0.4c-0.4,0.8-0.2,1.1,0.7,0.9c0-0.1-1.6,1.4-1.6,0.9
				c0.1,1.4,2.3,1-0.1,2c0.6-1,1.4-0.2,2.1,2.6c-1.2,0-3,0.2-3.1,2c0-0.5,4.2,6.2,4.3,6.2c-2.5-0.5-6.1,2-3,4.5
				c1.6-2.4,2.9-1.3,4.5-1.6c0.2,3.5-3.2,0.7,0.2,5.7c0-4.1,2.9-2.5,4.9-2.5c-0.7,0.4-1.5,0.7-2.3,0.7c2,1.2,2.3,2.3,0.8,3.3
				c-2-0.8-0.9-2.6-2.5-0.1c-1.6-1.7-0.9-1.9-2.7-1.9c-1.3-1.5-1-2.7-0.9-3.8c-0.5,0.4-1.1,0.6-1.5,0.9c-0.6-0.5-4.6-2.9-5.8-2.7
				c3.6,1.7-1.4,3.1-1.7,3.2c0.6,1.4,1.7,4.5,0.7,3.8c0.8-0.1,0,0.3-0.2-0.4c-0.3,2.2-0.3,2.7-0.2,1.6c-0.7-0.2-2.2,2.5-2.3,0.1
				c-1.5-0.2-2.6-0.4-3.9-1.3c0.8-1.2,1.6-2.5,2.4-3.8c-1.8,2.4-3.3,2.8-4.4,1.3c1-1.3,7.7-3.5,6.5-6c0.6-0.5-4.7-1.9-4.7-1.9
				c-3.6-5.1-1.6,0.3-1.8-6.1c-0.1-4.2,3.5-6.4,2.1-12c-2.9,1.6-1,4.3-2.8,5.7c-1.1-2.1-1.6-9.4,0.7-9.5c-0.8-0.4,0.2,0.2,0.1-0.1
				c-0.3-0.7-0.8-1.1-1.5-1.1c0.6,0,0.7,0.2,0.3,0.6c1.3-0.5-2.7-8.4-3.1-9c0,1.3-0.5,2.4-1.4,3.2c-0.1,0.1-0.1-5-1.8-4.3
				c-0.1,0.4,1.4,2.7,1.3,3.3c-0.5,0-1,0-1.5,0.1c0.6,0.5,0.5,3.8-1,2.7c5.7-6.8-6.1-5.3-5.3-4.8c1,0.5,2.1,0.8,3.2,0.8
				c-0.3-1.4-5.2,2-5.9,3.2c-0.1-0.3-1.9-4.2-2.8-4.2c-1.4,0-0.6,2.3-0.6,2.8c0.5,1.2-4.5-2.1-4.1-2.4c-2,1.7-0.4,12-1.4,12.4
				c0-2.1-0.4-4-1.3-5.9c0.8,1.9,0.5,3.3-0.8,4.1c0.2-1.6-0.3-1.8-1.4-0.6c0,0,1,2.8,1.5,2.4c-5.9-5.2-0.8,3.3-1.4,4.2
				c-0.5-0.7-1.4-3.2-3.1-2.5c0,0,0.2,2.1-0.1,2.8c1.5,0,2.9-1.8,2.1,1.9c-1.7-0.2-1.5-1.9-3.5-2.2c0.2-0.2,0.2-0.1-0.1,0.3
				c2.9-4.7,0.2-11.3,2-14.2c1.1,0.5,4.7-4,5.1,1.5c1.8-1.5-0.7-5.8-0.7-7.5c0-0.6,7.4-3.5-0.5-1.1c0.6-0.4,0.6-0.2-0.2,0.5
				c8.2-0.3-7.5-2.7-4.3-0.6c0-1.5,0.7-2.6,2-3.3c-2.1,0.9-0.7-4.9,0.5-7.2c-5.9,7.3-9.2,17.9-14,24.8c-0.3-0.3-0.7-0.6-1-0.9
				c-1,1.5,0.2,7.3-0.8,8.4c-0.9-0.1-1.4-0.5-1.6-1.3c0.1-0.3,2.3-1.3,1.5-0.3c-0.3-0.4-0.7-0.9-1-1.3c-0.1-0.3-0.9,7.6,0.3,7.1
				c-0.1-0.5-0.3-0.9-0.4-1.4c0.8,1.9,1.7,1.5,2.8-1.2c0.7-0.5,0,5.9,0.3,5.6c-1.4-2,1.6,1.8,0.4,3.8c-2.1,0.7-2.1-6.4-2.9-3.3
				c-0.8-1.6-1.4-3.2-2-4.8c0.6,1.9,0.2,2.4-1.2,1.4c0.1,0.3-0.3,9.5-0.2,9.5c0-0.5,0.1-1,0.2-1.5c0.3-0.1-2.9,11.3-2.5,12
				c-0.5-0.9,1.3,3.3,1,2.9c-0.2-1.8,0.2,0.3-0.6-0.8c-2.3,1.9,7.9,24.3,7.6,25.3c0.9,0,0.5-0.2,1.3-1.4c3,5,1.1,3.9-0.5,3.8
				c0.5,0.2,0.9,0.3,1.4,0.5c-0.6,0.1-0.9,0.4-1.1,1.1c-0.4,0.1,9.2,8.4,9.3,8.7c-0.8-1-1.6-2.1-2.1-3.3c1.3-0.6,2.3,2.8,3.2,3.3
				c-1,0-1-0.4,0-1.3c0.6,1.4-1.8,4.7,0,5.6c0.8-2,2.3,0.9,3.8,2.1c-0.2-1-1-5.4-1.3-6.1c3.7,1.4,4.7,1.2,8.3,5
				c-3.5-3.6-0.1,7,0,7.2c2,4.5,4.2,6.2,7.7,8.3c-1.6-2.3,1.7,0.4,3.5,0.6c-0.1-3.2,0.2-3,0.5-4.7c-0.1,0.3,3.3-1.9,1.7-3.2
				c-0.7,0.2-1.5,0.5-2.2,0.8c-1.5-1.7-1.1-2.7,1.2-2.9c-0.1-1-8.3,1.1-6.4-2.6c0.5-1,4.1-2.5,5.1-1.7c0.1-2.6-2.7,0.1,0.2-1.3
				c-0.5-2-3.8-2.9-0.6-1.5c-0.2-1-0.1-1.9,0.1-2.8c2.5,0.7,4.6,5.4,2.6,6.9c1.4-1.1,4.2,0.2,5.3,1.6c-0.3,1-0.9,1.7-1.8,2
				c-2-2.3-0.1-1-0.9-2.7c2.7,1.6,2,4.9,4.7,6.2c0.5,0.3,11.9,0.5,13.3-1.2c-1.7,0.8,1.2-4.7,0.9-4.3c-1,0.2-1.8,0.6-2.5,1.5
				c1.3,1.6-0.7-11.2-0.2-9.1c0,0-5.2-1.1-5.9-1.5c1.3-0.3,2.5-0.7,3.7-1.3c0.4-1.5-1.9-0.8-2.5-1.5c0.8-0.6-4.5-9-6.8-8
				c-0.6,1.4-0.3,2.3,0.9,2.8c-1.8,4.6,0.4,4.3,0.9,9.1c-0.4-4.3-13.4-6.3-12.8-11.4c4.7-0.8,2.5-5.6-0.8-7.9c0.4,0.9,1,1.7,1.7,2.3
				c-2.4,1.2-0.9-1.6-3.2-1c0.3,5.8,2.3,0.9-0.6,1.3c-0.6,0.9-0.3,1.5,0.6,2c-2.7,1.8-12.1-8.4-8.2-6.2c-0.3-0.9-1-1.4-2-1.4
				c0.4-1.1,1.2-1.7,2.3-1.8c-0.3-3.3-3.4,0.9-3.6,1.7c0.5-0.6-4.2,0.5-3.9,0.7c-0.4-1.2,0-1.9,1.2-2.2c-0.8-0.4-4.1,0.1-4.8-0.8
				c0.9-0.6,1.7-1.4,2.3-2.3c-1.7,1.1-3,0.8-3.6-0.9c3.1-1.3-0.5,0.3-0.1-1c0.9,0.5,1.7,0.5,2.6,0c-0.7-1.5-1.2-3-1.4-4.7
				c0.8,0.7,1.7,1.3,2.6,1.7c0.6-1.2,0.9-2.4,1.1-3.7c1.6,3,1.3,6.8,3.6,8.8c0.8,0.7,7.4,1.2,7.1-0.6c0.2,0.3-4.6-0.6-4.7-0.6
				c0.1-0.1,1.9-0.9,1.9-1c0.6-1.6-3-0.6-3.3-0.7c-0.1-3.1,2-0.5,0.8-4.3c-0.5-1.6-1.4-2-2.8-4.7c3,3.6,0.6-3.7,1.7-2.7
				c-0.7-1.6,2.6,1.1,3,1.9c1-1,1.8-2.1,2.4-3.3c0,1.3-0.1,1.2-0.3-0.2c-0.1,0,2.7,1.5,2.1,0.5c0.1-3.8-3.2,3.6-1.5-3
				c-0.2,1.2-0.2,1.1-0.1-0.4c0.2,0.5,4.9,5.2,5.9,4.2c0,0-1.3-5.7-3-3.9c0.4-1.6,1.2-2.9,2.5-3.8c0.4,4.2,1.9,7.5,1.7,11.5
				c0.7,0.6,2.9-4.4,0.8-4.9c0,0.7,0.1,1.4,0.3,2c-0.7,0-1.4,0-2.1,0c0-1.7,0.5-3.3,1.4-4.8c-0.1,1.1,0.2,2,0.9,2.7
				c-0.1-1.9,0.1-3.8-0.1-5.7c0.8,1.4,1,2.8,0.7,4.3c3.3-1.9,0.4,3.9,1.4,3.3c-0.2-1.9,3.4-2.4,1.5-4.6c0.8,0.6,1.2,0.3,1.2-0.9
				c0,0.2,0.2,7.3,2.9,4.5c0.2-2.5,0.4-3.2,1-5.5c-0.9,0.3-0.6,5.4-0.4,5.3c-1.1,2.2,0.6,0.1-0.1,2.5c-1-0.2-1.9-0.6-2.8-1
				c1,2,5.5,2.7,4.5,0.3c-0.2,0,2.5,1.4-0.6,2.7c0.6,0.3,0.6,4.6,0.6,5.4c-3.9,1.2,1.6,4.8-2.1,6.3c0.6,0.4,1.1,0.9,1.5,1.6
				c-0.9,0.3-1.8,0.5-2.6,0.8c-0.4-1.1-1.4-2.6-0.1-0.8c-0.8,0-1.4-0.3-1.9-1c0.8-0.9,1.1-2,3.2-2.7c-0.1-0.2-3.8-4.1-4.2-4.1
				c1,2.5-1.2,2.2-2.5,1c-2.6,2.2,2.8,4.5,1.4,5.2c0.8,0.6-2.7-3.9-1,1c1.1-0.9,0.5-1.1-1.6-0.8c0.4,3,3.5,3.1,4.6,3.4
				c0.6,1-0.3,2.7,2,4.1c0.3-2.4,1.5-1.9,2.9-0.6c-0.2,0.9,1-6.6,2.2-0.7c0.9-0.6,3.2-3.4,3.4-4.7c0.7,0.9,1.6,1.6,2.6,2.1
				c-0.8-0.2,1.2-2.2,1.9-3.9c-2.3,5.6-7.5-8.5-3.1-5.1c1.1-2.2-3.1-1.3-3.1-1.3c-0.6-1.3,2.1-1.2,0.2-1.5c1.1,1.1,4.9-2.4,5-3.4
				c1,0.8,1.7,1.8,2.1,3c0.1-1.5,0-2.9-0.4-4.3c0.1,0,12,4.7,11.3,2.7c4.6,3.4,4.3-19.6,1.5-11.9c0.1-0.1-0.2-2.9-0.4-3.1
				c2.3,1,4.9,1.1,6.7,1.5c-0.5,1.6-0.1,2.4,1.2,2.4c2.8-2.9,1.8-3.1,5.3-1.7c-0.7,0.7-1.1,1.7-1.1,2.8c-0.3-1.3-1.8-2.3-2.9-1.6
				c2.4,5.5-1.9,1-2.6,5c1.4,0.2,5.1,7.6,4.9,7.8c-1.9,0.9-1.5,3.2-1,6c4.4-4,5,4.7,10.1,5c2,0.1,0.1-5.9,2.2-1.8
				c-0.3-1.1-0.4-2.2-0.2-3.4c0.3,1.7-0.2,6.1,2.4,6.3c3.4,0.2-0.9-7.7,2.3-4c2.6-1.8-1.9-5.5,2.6-8.3c1.3-0.8,6.9,0,8.1,1.8
				c-0.8-1-1.2-2.1-1.1-3.4c0.4,3.8,1.6-0.3,1.5-0.2c0.2,1.1,2.8,9.4,3,10c1.9,4.5,1.1-0.6,3.8,3.1c-0.5,1.4-0.8,2.9-1,4.4
				c2.7-0.1-1-6.1,3.8,0.4c1.6-1.7-0.2-3.4,0.4-5.4c-0.2,1.5,0.3,2.5,1.6,2.9c0.4-2,1.1-3.9,1.9-5.7c-0.2-0.1,2.4,3.5,2.6-0.2
				c-0.6-1.1-1.2-2-2-2.9c0,0,8-9.8,7-12.7C257.8,180.7,256.6,175.3,256.3,173.6C256.2,173.7,256.5,174.7,256.3,173.6z M192,157.8
				C192.1,157.6,193.1,158.2,192,157.8C192,157.8,192,157.8,192,157.8z M197.7,184.3C197.1,184,199.2,183.6,197.7,184.3
				C197.7,184.3,197.7,184.3,197.7,184.3z M198.2,174C198.2,174.2,199.2,173.8,198.2,174C198.2,173.9,198.2,174,198.2,174z
				 M209.6,191.5c0.1,0,0.3-0.1,0.4-0.2C209.9,191.4,209.7,191.5,209.6,191.5z"/>
		</g>
	</g>
</g>
<g>
	<g>
		<g>
			<g>
				<g>
					<g>
						<polygon class="st9" points="107.8,165.5 104.9,157.3 102.9,157.2 100.6,157.1 98.5,165 97.7,168 104.6,168.3 108.8,168.6 
													"/>
					</g>
					<g>
						<polygon class="st10" points="107.8,165.5 104.9,157.3 102.9,157.2 102.2,157.1 102.6,168.2 104.6,168.3 108.8,168.6 						
							"/>
					</g>
					<g>
						<g>
							<path class="st9" d="M111.5,171.2c-1.1-2.1-2.2-3.5-3-3.5c-0.4,0-2.4-0.1-4.6-0.2c4.1,0.8,7.1,10.1,7.1,10.8l3.4-0.6
								C114.4,177.7,112.6,173.4,111.5,171.2z"/>
						</g>
						<g>
							<path class="st11" d="M103.1,167.5c-2.4-0.1-4.8-0.2-4.8-0.2s-2.4-1.3-4.6,9.1l3.9,1.3C97.5,177.6,99.1,167.9,103.1,167.5z"
								/>
						</g>
					</g>
					<g>
						<g>
							<path class="st10" d="M103.1,167.5c-4,0.4-5.5,10.1-5.5,10.1l2.8,0.1c0,0,0.8-4.2,3.5-4.1l-0.3-6.2
								C103.3,167.5,103.2,167.5,103.1,167.5z"/>
						</g>
						<g>
							<path class="st12" d="M103.9,167.5c-0.1,0-0.3,0-0.4,0l0.3,6.2c2.6,0.1,3.7,4.4,3.7,4.4l3.6,0.2
								C111,177.6,108,168.3,103.9,167.5z"/>
						</g>
					</g>
					<g>
						<g>
							<polygon class="st13" points="94.1,176.4 73.5,260.9 76.8,262.5 97.5,177.6 							"/>
						</g>
					</g>
					<g>
						<g>
							<polygon class="st13" points="95.8,177 74.9,261.6 76.8,262.5 97.5,177.6 							"/>
						</g>
					</g>
					<g>
						<g>
							<polygon class="st13" points="113.9,177.8 111,178.3 140.6,264.8 144.6,264.5 							"/>
						</g>
					</g>
					<g>
						<g>
							<polygon class="st13" points="113.9,177.8 112.3,178.1 142.5,264.6 144.6,264.5 							"/>
						</g>
					</g>
					<g>
						<path class="st14" d="M101,175.8c0,0,0.7,1.1,0.8,2.3l4.4,0.2c0,0,0.1-1.6,0.5-2.2c0,0-1.1-2.3-2.9-2.4
							C102,173.6,101,175.8,101,175.8z"/>
					</g>
					<g>
						<polygon class="st13" points="105.9,178.2 102.7,178.1 102.1,178.1 104.6,259.6 105.2,259.6 108.8,259.8 						"/>
					</g>
					<g>
						<polygon class="st13" points="106.4,259.7 108.8,259.8 105.9,178.2 103.8,178.1 						"/>
					</g>
				</g>
				<g>
					<path class="st9" d="M73.5,259.9l4,0.9c0,0-0.1,2.6-1.6,3C74.4,264.2,71.8,263.3,73.5,259.9z"/>
				</g>
				<g>
					<path class="st9" d="M144.9,264.1l-4.6,0.6c0,0,0.3,2.6,1.8,3.2C143.6,268.5,146.8,267.8,144.9,264.1z"/>
				</g>
				<g>
					<path class="st9" d="M104.3,258.1l4.8,0.3c0,0,0.7,2.6-0.9,3.2C106.8,262.2,103.1,261.3,104.3,258.1z"/>
				</g>
				<g>
					<path class="st9" d="M75.3,153.7L60,158.6c0,0-2.1,1-0.7,4.7c1.4,3.6,4.2,2.9,5.3,2.8c1.2-0.1,16.1-3.1,16.1-3.1L75.3,153.7z"
						/>
				</g>
				<g>
					<path class="st9" d="M68.3,159.9c-1.5,0.5-3,1-4.5,1.4c-0.7,0.2-1.8,0.6-2.7,0.2c-1.3-0.5-1.8-1.5-1.8-2.5
						c-0.5,0.6-1,1.9-0.2,4.2c1.4,3.6,4.2,2.9,5.3,2.8c1.2-0.1,16.1-3.1,16.1-3.1l-3.3-5.8C74.3,158.1,71.3,159,68.3,159.9z"/>
				</g>
				<g>
					<path class="st15" d="M189.1,117.6L72.5,153.1c-0.7,0.1-0.6,3.1,0.7,6.5s3.5,5.8,4.2,5.7l123.5-18.6l-10.2-28L189.1,117.6z"/>
				</g>
				<g class="st16">
					<g>
						<path class="st15" d="M192.1,122.9L72.2,156.3c0.1,0.8,0.4,1.6,0.7,2.6L194.4,129L192.1,122.9z"/>
					</g>
				</g>
				<g>
					<path class="st17" d="M174.2,138.3c-19.6,4.4-82.5,18.4-87.1,19.3c-3.2,0.6-7.3,1.4-10.6,0.1c-2.3-0.9-3.6-2.5-4.3-4.4
						c-0.3,0.9-0.1,3.4,1,6.1c1.3,3.4,3.5,5.8,4.2,5.7l123.5-18.6l-4.9-13.4C188.7,134.9,181.4,136.7,174.2,138.3z"/>
				</g>
				<g>
					<path class="st15" d="M192.9,147.9l8-1.2l-10.2-28l-1.4-1l-6.7,2C180.1,129.5,185.4,139.5,192.9,147.9z"/>
				</g>
				<g>
					<g>
						<path class="st9" d="M188.9,136.4c1.7,3.9,4.3,8.5,8.1,11.6l18.3-2.8l-11.5-31.4l-1.6-1.2l-16.1,4.9
							C184.3,123.5,186.4,130.5,188.9,136.4z"/>
					</g>
					<g>
						<path class="st18" d="M195.3,120.1c3.4-0.7,6.8-1.4,10.1-2.1l-1.5-4.1l-1.6-1.2l-16.1,4.9c-0.5,1.5-0.7,3.1-0.7,4.7
							C188.7,121.6,192,120.8,195.3,120.1z"/>
					</g>
					<g>
						<path class="st18" d="M190,138.7c1.7,3.3,4,6.8,7.1,9.4l18.3-2.8l-4.3-11.7C204.1,135.4,197.1,137.2,190,138.7z"/>
					</g>
					<g>
						<path d="M216.2,127.4c3.6,9,3.3,17-0.8,17.9c-4,0.9-10.3-5.6-13.9-14.6s-3.3-17,0.8-17.9S212.5,118.4,216.2,127.4z"/>
					</g>
					<g>
						<g>
							<path class="st19" d="M203.4,114.4c-0.6,0.1-1.1,0.5-1.5,1c3.3,1.2,7.4,6.4,10,12.9c2.6,6.6,3,12.5,1.2,14.9
								c0.7,0.3,1.4,0.4,2,0.2c3.4-0.8,3.6-7.9,0.3-15.9C212.2,119.5,206.8,113.6,203.4,114.4z"/>
						</g>
						<g>
							<path class="st20" d="M211.8,128.3c-2.6-6.6-6.7-11.7-10-12.9c-1.8,2.4-1.4,8.3,1.2,14.9c2.6,6.6,6.7,11.7,10,12.9
								C214.9,140.9,214.5,134.9,211.8,128.3z"/>
						</g>
					</g>
					<g>
						<path class="st21" d="M207.6,122.5c1,1.9,0.9,3.8-0.3,4.1c-1.1,0.4-2.9-0.9-3.9-2.8c-1-1.9-0.9-3.8,0.3-4.1
							C204.9,119.3,206.7,120.6,207.6,122.5z"/>
					</g>
					<g>
						<path class="st21" d="M210.8,130.1c0.4,0.8,0.4,1.6-0.1,1.7c-0.5,0.1-1.2-0.4-1.6-1.2s-0.4-1.6,0.1-1.7
							C209.6,128.8,210.4,129.3,210.8,130.1z"/>
					</g>
				</g>
				<g>
					<g>
						<path class="st9" d="M58.7,148.5c0,0-1,0.2-0.2,2.2c0.8,2,2.3,1.2,2.3,1.2l16.5-4.5l-2.7-4.7L58.7,148.5z"/>
					</g>
					<g>
						<path class="st9" d="M73.2,148.6l4.1-1.1l-2.7-4.7l-3.4,1.2C71.3,145.5,72,147.3,73.2,148.6z"/>
					</g>
					<g>
						<polygon class="st22" points="64.7,158.3 62.4,149.7 64.6,149.4 69.6,157 						"/>
					</g>
					<g>
						<path class="st22" d="M66.1,151.8l-1.5-2.3l-2.2,0.3l0.7,2.8C64.2,152.4,65.1,152.1,66.1,151.8z"/>
					</g>
					<g>
						<path class="st22" d="M64.3,157l0.3,1.3l4.9-1.3l-1-1.5C67.2,156.1,65.8,156.6,64.3,157z"/>
					</g>
					<g>
						<polygon class="st22" points="60.2,147.6 62.5,151.9 65.9,151 63.8,146.1 						"/>
					</g>
					<g>
						<path class="st23" d="M63.9,149.3c0,0.4-0.4,0.8-0.9,0.7c-0.5,0-0.9-0.4-0.9-0.8c0-0.4,0.4-0.8,0.9-0.7
							C63.5,148.5,63.9,148.9,63.9,149.3z"/>
					</g>
					<g>
						<g>
							<path class="st9" d="M73.4,146.2c0.4,0.8,1,1.7,1.9,2.4l3.8-0.8l-2.9-6.5l-0.3-0.2l-3.3,1.2
								C72.3,143.5,72.8,144.9,73.4,146.2z"/>
						</g>
						<g>
							<path class="st18" d="M74.5,142.6c0.7-0.2,1.4-0.4,2.1-0.6l-0.4-0.9l-0.4-0.2l-3.3,1.2c-0.1,0.3-0.1,0.7-0.1,1
								C73.2,143,73.8,142.8,74.5,142.6z"/>
						</g>
						<g>
							<path class="st18" d="M73.7,146.6c0.4,0.7,0.9,1.4,1.6,1.9l3.8-0.8l-1.1-2.4C76.6,145.8,75.2,146.2,73.7,146.6z"/>
						</g>
						<g>
							<path d="M79,143.9c0.9,1.9,0.9,3.6,0.1,3.8c-0.8,0.2-2.2-1.1-3.1-2.9c-0.9-1.9-0.9-3.6-0.1-3.8
								C76.7,140.8,78.1,142.1,79,143.9z"/>
						</g>
						<g>
							<g>
								<path class="st19" d="M76.1,141.3c-0.1,0-0.2,0.1-0.3,0.2c0.7,0.2,1.6,1.3,2.3,2.6c0.7,1.4,0.8,2.6,0.5,3.1
									c0.2,0.1,0.3,0.1,0.4,0c0.7-0.2,0.6-1.7-0.2-3.4C78,142.3,76.8,141.1,76.1,141.3z"/>
							</g>
							<g>
								<path class="st20" d="M78.1,144.2c-0.7-1.4-1.6-2.4-2.3-2.6c-0.3,0.5-0.2,1.8,0.5,3.1c0.7,1.4,1.6,2.4,2.3,2.6
									C78.9,146.8,78.7,145.5,78.1,144.2z"/>
							</g>
						</g>
						<g>
							<path class="st21" d="M77.1,143c0.2,0.4,0.2,0.8,0,0.9c-0.2,0.1-0.6-0.1-0.8-0.6c-0.2-0.4-0.2-0.8,0-0.9
								C76.5,142.4,76.9,142.6,77.1,143z"/>
						</g>
						<g>
							<path class="st21" d="M77.9,144.6c0.1,0.2,0.1,0.3,0,0.4c-0.1,0-0.3-0.1-0.3-0.2c-0.1-0.2-0.1-0.3,0-0.4
								C77.6,144.3,77.8,144.4,77.9,144.6z"/>
						</g>
					</g>
				</g>
				<g>
					<path class="st10" d="M106.4,152.7c-1.2-3.1-2.1-6.8-1.2-9.9l-13.4,4c0,0,0,0,0,0.1c-0.5,1-0.8,2.1-0.9,3.2
						c-0.1,1.8,0.2,3.6,0.9,5.4c0.9,2.6,2.4,5.3,4.7,7.4l15.9-2.3C109.5,158.6,107.5,155.4,106.4,152.7z"/>
				</g>
				<g>
					<path class="st9" d="M92.5,148c-0.4,0.1-0.9,0.2-1.3,0.3c-0.1,0.5-0.2,1.1-0.2,1.6c0,0.3,0,0.6,0,0.8c3.5-1,12.7-4.2,13.9-4.5
						c0-0.4,0-0.8,0-1.2C103.2,145.5,95,147.5,92.5,148z"/>
				</g>
				<g>
					<path class="st10" d="M107,154c-1.2,0.2-10.8,2.5-14.5,3.3c0.9,2,2.2,3.9,3.9,5.6l15.9-2.3C109.9,158.9,108.2,156.4,107,154z"
						/>
				</g>
			</g>
		</g>
	</g>
	<g class="st24">
		<g>
			<g>
				<g>
					<g>
						<polygon points="107.8,165.5 104.9,157.3 102.9,157.2 100.6,157.1 98.5,165 97.7,168 104.6,168.3 108.8,168.6 						"/>
					</g>
					<g>
						<polygon points="107.8,165.5 104.9,157.3 102.9,157.2 102.2,157.1 102.6,168.2 104.6,168.3 108.8,168.6 						"/>
					</g>
					<g>
						<g>
							<path d="M111.5,171.2c-1.1-2.1-2.2-3.5-3-3.5c-0.4,0-2.4-0.1-4.6-0.2c4.1,0.8,7.1,10.1,7.1,10.8l3.4-0.6
								C114.4,177.7,112.6,173.4,111.5,171.2z"/>
						</g>
						<g>
							<path d="M103.1,167.5c-2.4-0.1-4.8-0.2-4.8-0.2s-2.4-1.3-4.6,9.1l3.9,1.3C97.5,177.6,99.1,167.9,103.1,167.5z"/>
						</g>
					</g>
					<g>
						<g>
							<path d="M103.1,167.5c-4,0.4-5.5,10.1-5.5,10.1l2.8,0.1c0,0,0.8-4.2,3.5-4.1l-0.3-6.2C103.3,167.5,103.2,167.5,103.1,167.5z"
								/>
						</g>
						<g>
							<path d="M103.9,167.5c-0.1,0-0.3,0-0.4,0l0.3,6.2c2.6,0.1,3.7,4.4,3.7,4.4l3.6,0.2C111,177.6,108,168.3,103.9,167.5z"/>
						</g>
					</g>
					<g>
						<g>
							<polygon points="94.1,176.4 73.5,260.9 76.8,262.5 97.5,177.6 							"/>
						</g>
					</g>
					<g>
						<g>
							<polygon points="95.8,177 74.9,261.6 76.8,262.5 97.5,177.6 							"/>
						</g>
					</g>
					<g>
						<g>
							<polygon points="113.9,177.8 111,178.3 140.6,264.8 144.6,264.5 							"/>
						</g>
					</g>
					<g>
						<g>
							<polygon points="113.9,177.8 112.3,178.1 142.5,264.6 144.6,264.5 							"/>
						</g>
					</g>
					<g>
						<path d="M101,175.8c0,0,0.7,1.1,0.8,2.3l4.4,0.2c0,0,0.1-1.6,0.5-2.2c0,0-1.1-2.3-2.9-2.4C102,173.6,101,175.8,101,175.8z"/>
					</g>
					<g>
						<polygon points="105.9,178.2 102.7,178.1 102.1,178.1 104.6,259.6 105.2,259.6 108.8,259.8 						"/>
					</g>
					<g>
						<polygon points="106.4,259.7 108.8,259.8 105.9,178.2 103.8,178.1 						"/>
					</g>
				</g>
				<g>
					<path d="M73.5,259.9l4,0.9c0,0-0.1,2.6-1.6,3C74.4,264.2,71.8,263.3,73.5,259.9z"/>
				</g>
				<g>
					<path d="M144.9,264.1l-4.6,0.6c0,0,0.3,2.6,1.8,3.2C143.6,268.5,146.8,267.8,144.9,264.1z"/>
				</g>
				<g>
					<path d="M104.3,258.1l4.8,0.3c0,0,0.7,2.6-0.9,3.2C106.8,262.2,103.1,261.3,104.3,258.1z"/>
				</g>
				<g>
					<path d="M75.3,153.7L60,158.6c0,0-2.1,1-0.7,4.7c1.4,3.6,4.2,2.9,5.3,2.8c1.2-0.1,16.1-3.1,16.1-3.1L75.3,153.7z"/>
				</g>
				<g>
					<path d="M68.3,159.9c-1.5,0.5-3,1-4.5,1.4c-0.7,0.2-1.8,0.6-2.7,0.2c-1.3-0.5-1.8-1.5-1.8-2.5c-0.5,0.6-1,1.9-0.2,4.2
						c1.4,3.6,4.2,2.9,5.3,2.8c1.2-0.1,16.1-3.1,16.1-3.1l-3.3-5.8C74.3,158.1,71.3,159,68.3,159.9z"/>
				</g>
				<g>
					<path class="st17" d="M189.1,117.6L72.5,153.1c-0.7,0.1-0.6,3.1,0.7,6.5s3.5,5.8,4.2,5.7l123.5-18.6l-10.2-28L189.1,117.6z"/>
				</g>
				<g>
					<g>
						<path class="st17" d="M192.1,122.9L72.2,156.3c0.1,0.8,0.4,1.6,0.7,2.6L194.4,129L192.1,122.9z"/>
					</g>
				</g>
				<g>
					<path class="st17" d="M174.2,138.3c-19.6,4.4-82.5,18.4-87.1,19.3c-3.2,0.6-7.3,1.4-10.6,0.1c-2.3-0.9-3.6-2.5-4.3-4.4
						c-0.3,0.9-0.1,3.4,1,6.1c1.3,3.4,3.5,5.8,4.2,5.7l123.5-18.6l-4.9-13.4C188.7,134.9,181.4,136.7,174.2,138.3z"/>
				</g>
				<g>
					<path d="M192.9,147.9l8-1.2l-10.2-28l-1.4-1l-6.7,2C180.1,129.5,185.4,139.5,192.9,147.9z"/>
				</g>
				<g>
					<g>
						<path d="M188.9,136.4c1.7,3.9,4.3,8.5,8.1,11.6l18.3-2.8l-11.5-31.4l-1.6-1.2l-16.1,4.9C184.3,123.5,186.4,130.5,188.9,136.4z
							"/>
					</g>
					<g>
						<path d="M195.3,120.1c3.4-0.7,6.8-1.4,10.1-2.1l-1.5-4.1l-1.6-1.2l-16.1,4.9c-0.5,1.5-0.7,3.1-0.7,4.7
							C188.7,121.6,192,120.8,195.3,120.1z"/>
					</g>
					<g>
						<path d="M190,138.7c1.7,3.3,4,6.8,7.1,9.4l18.3-2.8l-4.3-11.7C204.1,135.4,197.1,137.2,190,138.7z"/>
					</g>
					<g>
						<path d="M216.2,127.4c3.6,9,3.3,17-0.8,17.9c-4,0.9-10.3-5.6-13.9-14.6s-3.3-17,0.8-17.9S212.5,118.4,216.2,127.4z"/>
					</g>
					<g>
						<g>
							<path d="M203.4,114.4c-0.6,0.1-1.1,0.5-1.5,1c3.3,1.2,7.4,6.4,10,12.9c2.6,6.6,3,12.5,1.2,14.9c0.7,0.3,1.4,0.4,2,0.2
								c3.4-0.8,3.6-7.9,0.3-15.9C212.2,119.5,206.8,113.6,203.4,114.4z"/>
						</g>
						<g>
							<path d="M211.8,128.3c-2.6-6.6-6.7-11.7-10-12.9c-1.8,2.4-1.4,8.3,1.2,14.9c2.6,6.6,6.7,11.7,10,12.9
								C214.9,140.9,214.5,134.9,211.8,128.3z"/>
						</g>
					</g>
					<g>
						<path d="M207.6,122.5c1,1.9,0.9,3.8-0.3,4.1c-1.1,0.4-2.9-0.9-3.9-2.8c-1-1.9-0.9-3.8,0.3-4.1
							C204.9,119.3,206.7,120.6,207.6,122.5z"/>
					</g>
					<g>
						<path d="M210.8,130.1c0.4,0.8,0.4,1.6-0.1,1.7c-0.5,0.1-1.2-0.4-1.6-1.2s-0.4-1.6,0.1-1.7
							C209.6,128.8,210.4,129.3,210.8,130.1z"/>
					</g>
				</g>
				<g>
					<g>
						<path d="M58.7,148.5c0,0-1,0.2-0.2,2.2c0.8,2,2.3,1.2,2.3,1.2l16.5-4.5l-2.7-4.7L58.7,148.5z"/>
					</g>
					<g>
						<path d="M73.2,148.6l4.1-1.1l-2.7-4.7l-3.4,1.2C71.3,145.5,72,147.3,73.2,148.6z"/>
					</g>
					<g>
						<polygon points="64.7,158.3 62.4,149.7 64.6,149.4 69.6,157 						"/>
					</g>
					<g>
						<path d="M66.1,151.8l-1.5-2.3l-2.2,0.3l0.7,2.8C64.2,152.4,65.1,152.1,66.1,151.8z"/>
					</g>
					<g>
						<path d="M64.3,157l0.3,1.3l4.9-1.3l-1-1.5C67.2,156.1,65.8,156.6,64.3,157z"/>
					</g>
					<g>
						<polygon points="60.2,147.6 62.5,151.9 65.9,151 63.8,146.1 						"/>
					</g>
					<g>
						<path d="M63.9,149.3c0,0.4-0.4,0.8-0.9,0.7c-0.5,0-0.9-0.4-0.9-0.8c0-0.4,0.4-0.8,0.9-0.7C63.5,148.5,63.9,148.9,63.9,149.3z"
							/>
					</g>
					<g>
						<g>
							<path d="M73.4,146.2c0.4,0.8,1,1.7,1.9,2.4l3.8-0.8l-2.9-6.5l-0.3-0.2l-3.3,1.2C72.3,143.5,72.8,144.9,73.4,146.2z"/>
						</g>
						<g>
							<path d="M74.5,142.6c0.7-0.2,1.4-0.4,2.1-0.6l-0.4-0.9l-0.4-0.2l-3.3,1.2c-0.1,0.3-0.1,0.7-0.1,1
								C73.2,143,73.8,142.8,74.5,142.6z"/>
						</g>
						<g>
							<path d="M73.7,146.6c0.4,0.7,0.9,1.4,1.6,1.9l3.8-0.8l-1.1-2.4C76.6,145.8,75.2,146.2,73.7,146.6z"/>
						</g>
						<g>
							<path d="M79,143.9c0.9,1.9,0.9,3.6,0.1,3.8c-0.8,0.2-2.2-1.1-3.1-2.9c-0.9-1.9-0.9-3.6-0.1-3.8
								C76.7,140.8,78.1,142.1,79,143.9z"/>
						</g>
						<g>
							<g>
								<path d="M76.1,141.3c-0.1,0-0.2,0.1-0.3,0.2c0.7,0.2,1.6,1.3,2.3,2.6c0.7,1.4,0.8,2.6,0.5,3.1c0.2,0.1,0.3,0.1,0.4,0
									c0.7-0.2,0.6-1.7-0.2-3.4C78,142.3,76.8,141.1,76.1,141.3z"/>
							</g>
							<g>
								<path d="M78.1,144.2c-0.7-1.4-1.6-2.4-2.3-2.6c-0.3,0.5-0.2,1.8,0.5,3.1c0.7,1.4,1.6,2.4,2.3,2.6
									C78.9,146.8,78.7,145.5,78.1,144.2z"/>
							</g>
						</g>
						<g>
							<path d="M77.1,143c0.2,0.4,0.2,0.8,0,0.9c-0.2,0.1-0.6-0.1-0.8-0.6c-0.2-0.4-0.2-0.8,0-0.9C76.5,142.4,76.9,142.6,77.1,143z"
								/>
						</g>
						<g>
							<path d="M77.9,144.6c0.1,0.2,0.1,0.3,0,0.4c-0.1,0-0.3-0.1-0.3-0.2c-0.1-0.2-0.1-0.3,0-0.4C77.6,144.3,77.8,144.4,77.9,144.6
								z"/>
						</g>
					</g>
				</g>
				<g>
					<path d="M106.4,152.7c-1.2-3.1-2.1-6.8-1.2-9.9l-13.4,4c0,0,0,0,0,0.1c-0.5,1-0.8,2.1-0.9,3.2c-0.1,1.8,0.2,3.6,0.9,5.4
						c0.9,2.6,2.4,5.3,4.7,7.4l15.9-2.3C109.5,158.6,107.5,155.4,106.4,152.7z"/>
				</g>
				<g>
					<path d="M92.5,148c-0.4,0.1-0.9,0.2-1.3,0.3c-0.1,0.5-0.2,1.1-0.2,1.6c0,0.3,0,0.6,0,0.8c3.5-1,12.7-4.2,13.9-4.5
						c0-0.4,0-0.8,0-1.2C103.2,145.5,95,147.5,92.5,148z"/>
				</g>
				<g>
					<path d="M107,154c-1.2,0.2-10.8,2.5-14.5,3.3c0.9,2,2.2,3.9,3.9,5.6l15.9-2.3C109.9,158.9,108.2,156.4,107,154z"/>
				</g>
			</g>
		</g>
	</g>
</g>
<path class="st17" d="M143.9,204.3c3.2,2.3,5.4,4.2,6.4,5.8c1,1.6,1.5,3.4,1.5,5.3c0,3-1.1,5.5-3.2,7.6c-2.1,2-4.8,3-8.1,3
	c-3.2,0-5.8-1.1-7.8-3.3c-2-2.2-3-5-3-8.4c0.7-0.3,1.5-0.5,2.4-0.7c0.9-0.1,1.8-0.2,2.6-0.2c-0.1,2.6,0.4,4.7,1.4,6.2
	c1,1.5,2.5,2.3,4.4,2.3c1.4,0,2.6-0.5,3.4-1.4s1.3-2.2,1.3-3.7c0-1.3-0.4-2.6-1.2-3.7c-0.8-1.1-2.5-2.7-5.2-4.5
	c-3.2-2.3-5.4-4.3-6.4-5.9c-1-1.7-1.5-3.5-1.5-5.6c0-2.9,0.9-5.2,2.8-6.9s4.3-2.6,7.4-2.6c3,0,5.4,0.8,7.1,2.4
	c1.8,1.6,2.9,4.1,3.5,7.4c-0.7,0.4-1.5,0.8-2.4,1c-0.9,0.2-1.9,0.4-3.1,0.5c-0.4-2.4-1-4.2-1.8-5.3s-1.9-1.6-3.3-1.6
	c-1.1,0-2,0.4-2.7,1.1c-0.7,0.8-1,1.8-1,3c0,1.3,0.4,2.6,1.2,3.7C139.5,200.9,141.2,202.4,143.9,204.3z"/>
<path class="st17" d="M171.7,209.7c0.9,0.1,1.7,0.3,2.5,0.6c0.8,0.3,1.6,0.7,2.3,1.1c-0.1,3.5-0.9,6.3-2.3,8.3s-3.5,3-6.1,3
	c-3,0-5.4-1.6-7-4.6s-2.4-7.6-2.4-13.4c0-2,0.1-3.9,0.2-5.7s0.3-3.7,0.5-5.4c-1-0.2-1.9-0.3-2.6-0.4c-0.8-0.1-1.4-0.3-2-0.4
	c0-0.7,0.1-1.5,0.3-2.2s0.4-1.4,0.6-1.9c0.6,0.2,1.3,0.3,2.1,0.4c0.7,0.1,1.5,0.2,2.3,0.3c0.2-1.4,0.5-2.8,0.8-4.2s0.6-2.8,1-4.2
	c1.5,0.1,2.8,0.2,4,0.4c1.2,0.2,2.2,0.4,3.1,0.7c-0.3,1-0.7,2.2-1,3.5s-0.6,2.8-0.9,4.3c1.7,0,3.3,0,5,0s3.2-0.2,4.8-0.4
	c0,0.6-0.1,1.3-0.2,1.9s-0.3,1.4-0.6,2.1c-1.5,0.2-3.1,0.3-4.8,0.4c-1.6,0.1-3.3,0.1-4.8,0.1c-0.3,2-0.5,3.9-0.7,5.9
	s-0.2,3.9-0.2,5.7c0,4.2,0.3,7.4,0.8,9.6s1.4,3.2,2.5,3.2c1,0,1.7-0.7,2.2-2.1C171.4,214.8,171.7,212.7,171.7,209.7z"/>
<path class="st17" d="M188.6,207.6c0.1,2.4,0.3,4.8,0.6,7.4s0.7,5.4,1.1,8.4c-0.6,0.2-1.2,0.4-1.9,0.4c-0.7,0.1-1.3,0.1-2,0.1
	c-0.4,0-0.8,0-1.1-0.1s-0.7-0.1-1.1-0.3c-1.1-5.4-1.8-11.1-2.2-17.2c-0.4-6.1-0.4-11.9-0.1-17.6c0.5-0.2,1.1-0.3,1.7-0.4
	c0.6-0.1,1.3-0.1,2.1-0.1c0.6,0,1.1,0,1.7,0.1c0.6,0.1,1.2,0.2,1.9,0.4c-0.2,1.1-0.3,2.3-0.5,3.6c-0.1,1.2-0.3,2.5-0.4,3.9
	c1-3,2.3-5.4,3.9-7.2s3.3-2.7,5-2.7c1.9,0,3.3,0.7,4.3,2.1s1.4,3.6,1.4,6.4c0,0.5,0,1-0.1,1.5c0,0.6-0.1,1.1-0.1,1.7
	c-0.6,0.3-1.4,0.4-2.4,0.5c-1,0.1-2.1,0.1-3.4,0.1c0.1-0.6,0.1-1.1,0.2-1.7c0-0.5,0.1-1,0.1-1.5c0-1.3-0.2-2.3-0.5-2.9
	c-0.3-0.7-0.8-1-1.4-1c-1.4,0-2.7,1.4-3.9,4.3C190.3,198.9,189.3,202.8,188.6,207.6z"/>
<path class="st17" d="M224.4,212.1c0.9,0.2,1.8,0.5,2.8,1s1.7,1.1,2.4,1.8c-0.8,2.4-2.5,4.5-5.1,6.4s-5.4,2.8-8.5,2.8
	c-3.7,0-6.6-1.3-8.7-4c-2.1-2.6-3.1-6.2-3.1-10.7c0-5.3,1.5-10,4.6-14.2s6.7-6.3,10.8-6.3c2.8,0,5,0.8,6.6,2.5s2.4,3.9,2.4,6.6
	c0,1.4-0.1,2.9-0.4,4.5s-0.6,2.9-1.1,4.1c-1,0.4-2.2,0.7-3.6,0.9s-3.1,0.3-5,0.3c-1.2,0-2.4-0.1-3.7-0.3c-1.3-0.2-2.5-0.5-3.8-0.9
	c0,0.9-0.1,1.4-0.1,1.8c0,0.3,0,0.7,0,1c0,3.2,0.5,5.7,1.6,7.6s2.5,2.9,4.3,2.9c1.4,0,2.9-0.8,4.5-2.3
	C222.8,216,223.8,214.2,224.4,212.1z M211.7,202.8c1.1,0.4,2.2,0.7,3.4,0.9c1.2,0.2,2.5,0.3,3.7,0.3c0.4,0,0.9,0,1.4-0.1
	c0.6-0.1,1-0.1,1.2-0.2c0.3-1.1,0.5-2.2,0.7-3.2s0.2-1.9,0.2-2.8c0-1.7-0.3-2.8-0.8-3.6c-0.5-0.7-1.4-1.1-2.5-1.1
	c-1.5,0-3,0.9-4.3,2.7C213.4,197.6,212.4,199.9,211.7,202.8z"/>
<path class="st17" d="M253.9,212.1c0.9,0.2,1.8,0.5,2.8,1s1.7,1.1,2.4,1.8c-0.8,2.4-2.5,4.5-5.1,6.4c-2.6,1.9-5.4,2.8-8.5,2.8
	c-3.7,0-6.6-1.3-8.7-4c-2.1-2.6-3.1-6.2-3.1-10.7c0-5.3,1.5-10,4.6-14.2s6.7-6.3,10.8-6.3c2.8,0,5,0.8,6.6,2.5s2.4,3.9,2.4,6.6
	c0,1.4-0.1,2.9-0.4,4.5s-0.6,2.9-1.1,4.1c-1,0.4-2.2,0.7-3.6,0.9s-3.1,0.3-5,0.3c-1.2,0-2.4-0.1-3.7-0.3c-1.3-0.2-2.5-0.5-3.8-0.9
	c0,0.9-0.1,1.4-0.1,1.8c0,0.3,0,0.7,0,1c0,3.2,0.5,5.7,1.6,7.6s2.5,2.9,4.3,2.9c1.4,0,2.9-0.8,4.5-2.3
	C252.2,216,253.3,214.2,253.9,212.1z M241.2,202.8c1.1,0.4,2.2,0.7,3.4,0.9c1.2,0.2,2.5,0.3,3.7,0.3c0.4,0,0.9,0,1.4-0.1
	c0.6-0.1,1-0.1,1.2-0.2c0.3-1.1,0.5-2.2,0.7-3.2s0.2-1.9,0.2-2.8c0-1.7-0.3-2.8-0.8-3.6c-0.5-0.7-1.4-1.1-2.5-1.1
	c-1.5,0-3,0.9-4.3,2.7C242.9,197.6,241.9,199.9,241.2,202.8z"/>
<polygon class="st17" points="228.8,121.8 229.1,118.6 228.3,121.7 223.3,115.6 227.2,122.5 223.9,122.2 227.1,123 221,128 
	227.9,124 227.6,127.3 228.4,124.2 233.4,130.2 229.4,123.4 232.7,123.7 229.5,122.9 235.6,117.8 "/>
<g>
	<g>
		<path class="st21" d="M210.4,185.6l20.6-14.4c0,0,0.7-0.6,0-1.5c0,0-0.5-0.5-1.4,0.2C228.9,170.7,210.4,185.6,210.4,185.6z"/>
		
			<linearGradient id="SVGID_7_" gradientUnits="userSpaceOnUse" x1="-157.6288" y1="71.4548" x2="-154.2346" y2="73.5825" gradientTransform="matrix(-0.7353 7.380000e-02 7.650000e-02 0.7623 109.3825 127.4795)">
			<stop  offset="0" style="stop-color:#FFFFFF"/>
			<stop  offset="6.750000e-02" style="stop-color:#E7EBEC"/>
			<stop  offset="0.261" style="stop-color:#A7B5BB"/>
			<stop  offset="0.4459" style="stop-color:#728892"/>
			<stop  offset="0.6172" style="stop-color:#496672"/>
			<stop  offset="0.7719" style="stop-color:#2B4D5B"/>
			<stop  offset="0.9046" style="stop-color:#193D4D"/>
			<stop  offset="1" style="stop-color:#133848"/>
		</linearGradient>
		<path class="st25" d="M228.4,172.5c0.3-0.1,0.6-0.3,0.8-0.4c0.1-0.1,0.3-0.1,0.4-0.2c0.1-0.1,0.2-0.1,0.2-0.2
			c-0.1,0.1-0.3,0.2-0.4,0.3l0,0l0,0c0,0,0,0,0,0c0,0,0,0.1,0,0.1c0.3-0.1,0.6-0.3,1-0.5c0.2-0.1,0.3-0.2,0.5-0.4
			c0.1-0.1,0.2-0.2,0.3-0.3c0.1-0.2,0.2-0.5,0.1-0.7s-0.3-0.5-0.5-0.6c-0.1,0-0.3,0-0.4,0.1c-0.1,0.1-0.2,0.1-0.3,0.2
			c-0.1,0-0.1,0.1-0.2,0.1c-0.1,0.1-0.3,0.3-0.4,0.4c-0.1,0.2-0.2,0.3-0.3,0.5c-0.1,0.1-0.2,0.3-0.2,0.4c0,0,0,0,0,0
			c0.1,0,0.2-0.1,0.2-0.1c-0.1,0.1-0.1,0.1-0.2,0.2c-0.1,0.1-0.2,0.2-0.2,0.3c0,0,0,0.1,0,0c0.1,0,0.2-0.1,0.2-0.1
			c0.1-0.1,0.2-0.1,0.3-0.2c0.1,0,0.1-0.1,0.1-0.1c-0.1,0.1-0.2,0.2-0.3,0.3c-0.1,0.1-0.2,0.2-0.4,0.3c-0.1,0.1-0.1,0.1-0.2,0.1
			C228.4,172.3,228.4,172.4,228.4,172.5C228.3,172.5,228.3,172.5,228.4,172.5z"/>
	</g>
	<path class="st17" d="M225.7,174.7c0,0,4.9-3.1,5.4-3.7c0.5-0.6,0.1-1.6-1.1-1s-6.3,5.5-6.3,5.5l2.3-1.7l-2.9,2.5l2.7-2
		c0,0-1.3,1.2-1.3,1.2C224.5,175.5,225.7,174.7,225.7,174.7z"/>
</g>
</svg>